# xmcd
# 
# Track frame offsets:
#     150
#     16282
#     31495
#     46435
#     63180
#     77297
#     89532
#     102307
#     118460
#     133882
#     147015
#     161017
#     179575
#     198215
#     214237
#     227920
#     241705
#     254765
# 
# Disc length: 3571
# 
# Revision: 1
# Processed by: cddbd v1.5.2PL0 Copyright (c) Steve Scherf et al.
# Submitted via: fre:ac v1.0.17
# 
DISCID=020df112
DTITLE=Various Artist - FOLK and POPS BEST HITS 04
DYEAR=0
DGENRE=JPop
TTITLE0=いつまでもいつまでも
TTITLE1=この手のひらに愛を
TTITLE2=あなたのすべてを
TTITLE3=旅立つ彼
TTITLE4=どうにかなるさ
TTITLE5=昨日・今日・明日
TTITLE6=お世話になりました
TTITLE7=まごころ
TTITLE8=歌ってよ夕陽の歌を
TTITLE9=小さなスナック
TTITLE10=別れても好きな人
TTITLE11=禁じられた恋
TTITLE12=「さよなら」の世界
TTITLE13=可愛い人よ
TTITLE14=個人授業
TTITLE15=恋のダイヤル6700
TTITLE16=さよならをもう一度
TTITLE17=また逢う日まで
EXTD=
EXTT0=
EXTT1=
EXTT2=
EXTT3=
EXTT4=
EXTT5=
EXTT6=
EXTT7=
EXTT8=
EXTT9=
EXTT10=
EXTT11=
EXTT12=
EXTT13=
EXTT14=
EXTT15=
EXTT16=
EXTT17=
PLAYORDER=
